<?xml version="1.0" encoding="UTF-8"?>
<svg width="32" height="32" viewBox="0 0 32 32" xmlns="http://www.w3.org/2000/svg">
  <defs>
    <style type="text/css"><![CDATA[
      .frame { fill: none; stroke: #2c3e50; stroke-width: 2; }
      .pleats { fill: #3498db; stroke: #2980b9; stroke-width: 0.5; opacity: 0.8; }
      .pleats-shadow { fill: #2980b9; opacity: 0.3; }
      .rail { fill: #34495e; stroke: #2c3e50; stroke-width: 1; }
      .cord { fill: none; stroke: #e67e22; stroke-width: 1; }
    ]]></style>
  </defs>
  
  <rect width="32" height="32" fill="#ffffff" rx="2"/>
  
  <!-- Pleated Blind -->
  <g transform="translate(4, 4)">
    <!-- Window frame -->
    <rect x="0" y="0" width="24" height="24" class="frame"/>
    
    <!-- Top rail -->
    <rect x="2" y="2" width="20" height="2" class="rail"/>
    
    <!-- Pleated fabric with zigzag pattern -->
    <g>
      <!-- Pleat folds (zigzag) -->
      <path d="M 2 6 L 4 8 L 6 6 L 8 8 L 10 6 L 12 8 L 14 6 L 16 8 L 18 6 L 20 8 L 22 6" class="pleats"/>
      <path d="M 2 8 L 4 10 L 6 8 L 8 10 L 10 8 L 12 10 L 14 8 L 16 10 L 18 8 L 20 10 L 22 8" class="pleats"/>
      <path d="M 2 10 L 4 12 L 6 10 L 8 12 L 10 10 L 12 12 L 14 10 L 16 12 L 18 10 L 20 12 L 22 10" class="pleats"/>
      <path d="M 2 12 L 4 14 L 6 12 L 8 14 L 10 12 L 12 14 L 14 12 L 16 14 L 18 12 L 20 14 L 22 12" class="pleats"/>
      <path d="M 2 14 L 4 16 L 6 14 L 8 16 L 10 14 L 12 16 L 14 14 L 16 16 L 18 14 L 20 16 L 22 14" class="pleats"/>
      
      <!-- Shadow lines for depth -->
      <path d="M 4 6 L 4 16" class="pleats-shadow" stroke-width="0.5"/>
      <path d="M 8 6 L 8 16" class="pleats-shadow" stroke-width="0.5"/>
      <path d="M 12 6 L 12 16" class="pleats-shadow" stroke-width="0.5"/>
      <path d="M 16 6 L 16 16" class="pleats-shadow" stroke-width="0.5"/>
      <path d="M 20 6 L 20 16" class="pleats-shadow" stroke-width="0.5"/>
    </g>
    
    <!-- Bottom rail -->
    <rect x="2" y="16" width="20" height="2" class="rail"/>
    
    <!-- Control cords -->
    <line x1="6" y1="4" x2="6" y2="16" class="cord"/>
    <line x1="18" y1="4" x2="18" y2="16" class="cord"/>
    
    <!-- Cord handles -->
    <circle cx="6" cy="20" r="1" fill="#e67e22" stroke="#d35400" stroke-width="0.5"/>
    <circle cx="18" cy="20" r="1" fill="#e67e22" stroke="#d35400" stroke-width="0.5"/>
  </g>
</svg>