<?xml version="1.0" encoding="UTF-8"?>
<svg width="32" height="32" viewBox="0 0 32 32" xmlns="http://www.w3.org/2000/svg">
  <defs>
    <style type="text/css"><![CDATA[
      .frame { fill: none; stroke: #2c3e50; stroke-width: 2; }
      .mesh { fill: none; stroke: #7f8c8d; stroke-width: 0.3; opacity: 0.8; }
      .mesh-bg { fill: #ecf0f1; opacity: 0.5; }
      .profile { fill: #34495e; stroke: #2c3e50; stroke-width: 1; }
    ]]></style>
  </defs>
  
  <rect width="32" height="32" fill="#ffffff" rx="2"/>
  
  <!-- Fly Screen -->
  <g transform="translate(4, 4)">
    <!-- Window frame background -->
    <rect x="0" y="0" width="24" height="24" class="frame"/>
    
    <!-- Mesh background -->
    <rect x="2" y="2" width="20" height="20" class="mesh-bg"/>
    
    <!-- Mesh pattern (grid) -->
    <g class="mesh">
      <!-- Vertical lines -->
      <line x1="4" y1="2" x2="4" y2="22"/>
      <line x1="6" y1="2" x2="6" y2="22"/>
      <line x1="8" y1="2" x2="8" y2="22"/>
      <line x1="10" y1="2" x2="10" y2="22"/>
      <line x1="12" y1="2" x2="12" y2="22"/>
      <line x1="14" y1="2" x2="14" y2="22"/>
      <line x1="16" y1="2" x2="16" y2="22"/>
      <line x1="18" y1="2" x2="18" y2="22"/>
      <line x1="20" y1="2" x2="20" y2="22"/>
      
      <!-- Horizontal lines -->
      <line x1="2" y1="4" x2="22" y2="4"/>
      <line x1="2" y1="6" x2="22" y2="6"/>
      <line x1="2" y1="8" x2="22" y2="8"/>
      <line x1="2" y1="10" x2="22" y2="10"/>
      <line x1="2" y1="12" x2="22" y2="12"/>
      <line x1="2" y1="14" x2="22" y2="14"/>
      <line x1="2" y1="16" x2="22" y2="16"/>
      <line x1="2" y1="18" x2="22" y2="18"/>
      <line x1="2" y1="20" x2="22" y2="20"/>
    </g>
    
    <!-- Frame profiles -->
    <rect x="0" y="0" width="24" height="2" class="profile"/>
    <rect x="0" y="22" width="24" height="2" class="profile"/>
    <rect x="0" y="0" width="2" height="24" class="profile"/>
    <rect x="22" y="0" width="2" height="24" class="profile"/>
    
    <!-- Handle/spring indicator -->
    <circle cx="20" cy="12" r="1.5" fill="#27ae60" stroke="#229954" stroke-width="0.5"/>
  </g>
</svg>